HIERARCHY
ROOT Hips
{
	OFFSET 0 0 0
	CHANNELS 6 Xposition Yposition Zposition Yrotation Xrotation Zrotation
	JOINT Spine
	{
		OFFSET -0 8.31378 -2.65002
		CHANNELS 3 Yrotation Xrotation Zrotation
		JOINT Spine1
		{
			OFFSET -0 7.96536 0
			CHANNELS 3 Yrotation Xrotation Zrotation
			JOINT Spine2
			{
				OFFSET -0 7.96536 0
				CHANNELS 3 Yrotation Xrotation Zrotation
				JOINT Spine3
				{
					OFFSET -0 7.96536 0
					CHANNELS 3 Yrotation Xrotation Zrotation
					JOINT Neck
					{
						OFFSET -0 18.6584 3.65002
						CHANNELS 3 Yrotation Xrotation Zrotation
						JOINT Head
						{
							OFFSET -0 10.3922 0
							CHANNELS 3 Yrotation Xrotation Zrotation
							End Site
							{
								OFFSET 0 15 0
							}
						}
					}
					JOINT LeftShoulder
					{
						OFFSET 1.73204 6.34351 3.46407
						CHANNELS 3 Yrotation Xrotation Zrotation
						JOINT LeftArm
						{
							OFFSET 17.8466 0 0
							CHANNELS 3 Yrotation Xrotation Zrotation
							JOINT LeftForeArm
							{
								OFFSET 23.3234 0 0
								CHANNELS 3 Yrotation Xrotation Zrotation
								JOINT LeftHand
								{
									OFFSET 21.6146 0 0
									CHANNELS 3 Yrotation Xrotation Zrotation
									End Site
									{
										OFFSET 15 0 0
									}
								}
							}
						}
					}
					JOINT RightShoulder
					{
						OFFSET -1.73204 6.34351 3.46407
						CHANNELS 3 Yrotation Xrotation Zrotation
						JOINT RightArm
						{
							OFFSET -17.8466 0 0
							CHANNELS 3 Yrotation Xrotation Zrotation
							JOINT RightForeArm
							{
								OFFSET -23.3234 0 0
								CHANNELS 3 Yrotation Xrotation Zrotation
								JOINT RightHand
								{
									OFFSET -21.6146 0 0
									CHANNELS 3 Yrotation Xrotation Zrotation
									End Site
									{
										OFFSET -15 0 0
									}
								}
							}
						}
					}
				}
			}
		}
	}
	JOINT LeftUpLeg
	{
		OFFSET 10.3922 -3.46407 2
		CHANNELS 3 Yrotation Xrotation Zrotation
		JOINT LeftLeg
		{
			OFFSET -0 -40.8293 2.42485
			CHANNELS 3 Yrotation Xrotation Zrotation
			JOINT LeftFoot
			{
				OFFSET -0 -39.9583 -2.42485
				CHANNELS 3 Yrotation Xrotation Zrotation
				JOINT LeftToeBase
				{
					OFFSET -0 -6.68739 15.5883
					CHANNELS 3 Yrotation Xrotation Zrotation
					End Site
					{
						OFFSET 0 0 5
					}
				}
			}
		}
	}
	JOINT RightUpLeg
	{
		OFFSET -10.3922 -3.46407 2
		CHANNELS 3 Yrotation Xrotation Zrotation
		JOINT RightLeg
		{
			OFFSET -0 -40.8293 2.42485
			CHANNELS 3 Yrotation Xrotation Zrotation
			JOINT RightFoot
			{
				OFFSET -0 -39.9583 -2.42485
				CHANNELS 3 Yrotation Xrotation Zrotation
				JOINT RightToeBase
				{
					OFFSET -0 -6.68739 15.5883
					CHANNELS 3 Yrotation Xrotation Zrotation
					End Site
					{
						OFFSET 0 0 5
					}
				}
			}
		}
	}
}
MOTION
Frames: 12
Frame Time: 0.00833333
0 93.266025 0 0 0 0 0 0 0 0 0 0 0 0 0 0 0 0 0 0 0 0 0 0 0 0 0 0 0 0 0 0 0 0 0 0 0 0 0 0 0 0 0 0 0 0 0 0 0 0 0 0 0 0 0 0 0 0 0 0 0 0 0 0 0 0 0 0 0 0 0 0
-103.715918 92.284784 101.608917 1.034182 -0.978507 -1.386781 -0.879338 3.275080 0.987585 -0.495723 3.282913 0.704778 -0.645422 3.182909 0.388301 -0.556364 3.196356 0.202908 -0.746174 23.893145 0.696667 -1.354692 13.126368 -2.729848 10.686161 10.744479 2.723907 -38.672842 -1.505880 -62.515091 -16.165787 6.443584 8.721279 8.483082 -2.189555 2.206945 -9.262968 5.790047 -3.026605 40.519137 0.988766 66.370879 16.439484 -6.309674 -9.548874 -0.367504 15.492449 9.534885 7.527316 0.533242 11.776072 0.000000 4.121245 0.000000 14.620247 0.177070 -3.807146 0.000000 -2.462654 0.000000 -7.663578 -1.243713 -8.756036 0.000000 4.392343 0.000000 -2.892865 2.814012 3.160951 0.000000 -9.390087 0.000000
-103.707153 92.285962 101.625385 0.973496 -0.967868 -1.371839 -0.847970 3.251676 1.020374 -0.469356 3.271229 0.691794 -0.650511 3.188180 0.347464 -0.567057 3.195667 0.193590 -0.754012 23.911374 0.694360 -1.351195 13.130550 -2.707199 10.670584 10.730687 2.729836 -38.730795 -1.445715 -62.475545 -16.054625 6.589614 8.742174 8.470865 -1.688846 2.196691 -9.265934 5.797831 -3.022597 40.602780 0.993926 66.335979 16.363004 -6.251583 -9.580143 -0.261191 15.682718 9.800523 7.523395 0.567426 11.757624 0.000000 4.095177 0.000000 14.689792 0.193580 -3.815794 0.000000 -2.431849 0.000000 -7.618830 -1.256390 -8.776447 0.000000 4.394566 0.000000 -2.864776 2.806781 3.162149 0.000000 -9.348755 0.000000
-103.705054 92.288806 101.651740 0.973967 -0.959017 -1.371878 -0.865669 3.206932 1.003404 -0.486815 3.291656 0.690867 -0.634579 3.178613 0.359095 -0.549320 3.184310 0.190013 -0.809442 23.967551 0.665755 -1.360796 13.083316 -2.675472 10.660257 10.741502 2.714357 -38.707755 -1.428861 -62.403221 -15.963404 6.839972 8.620349 8.481572 -1.430016 2.525280 -9.272365 5.790359 -3.011272 40.690035 1.084825 66.294298 16.347668 -6.204405 -9.554629 -0.175480 15.770860 9.968515 7.534725 0.572034 11.758507 0.000000 4.097566 0.000000 14.678220 0.216645 -3.846143 0.000000 -2.460096 0.000000 -7.647031 -1.249491 -8.776798 0.000000 4.384448 0.000000 -2.860915 2.799360 3.140640 0.000000 -9.342210 0.000000
-103.704102 92.290741 101.670685 0.969203 -0.953821 -1.371197 -0.865250 3.195078 1.003103 -0.486776 3.269585 0.688503 -0.632518 3.172402 0.355576 -0.547471 3.189889 0.186565 -0.834268 24.031481 0.660421 -1.365116 13.009534 -2.657825 10.611411 10.759487 2.716145 -38.703437 -1.406607 -62.362427 -15.867293 7.016793 8.542600 8.431263 -1.211431 2.776727 -9.250238 5.801642 -3.018660 40.710553 1.100047 66.284171 16.295105 -6.073746 -9.573655 -0.058517 16.041963 10.147274 7.536030 0.576543 11.759373 0.000000 4.105517 0.000000 14.689753 0.201033 -3.875840 0.000000 -2.376702 0.000000 -7.639692 -1.244803 -8.780418 0.000000 4.386427 0.000000 -2.852622 2.798944 3.153463 0.000000 -9.328392 0.000000
-103.700134 92.291211 101.691742 0.963224 -0.948727 -1.371090 -0.875241 3.205214 0.997276 -0.498065 3.240987 0.683304 -0.635065 3.151337 0.353583 -0.550367 3.177499 0.190348 -0.843506 24.103326 0.651193 -1.367410 12.941838 -2.657445 10.605489 10.755188 2.725685 -38.726707 -1.337922 -62.365555 -15.820349 7.066390 8.488636 8.444175 -0.717079 2.990850 -9.240951 5.794288 -3.015268 40.782956 1.154020 66.227122 16.278206 -6.052701 -9.527267 0.033950 16.419676 10.239096 7.534575 0.583281 11.759831 0.000000 4.114658 0.000000 14.690701 0.205693 -3.874562 0.000000 -2.348763 0.000000 -7.643144 -1.242089 -8.782137 0.000000 4.391979 0.000000 -2.848878 2.801974 3.128025 0.000000 -9.329876 0.000000
-103.699731 92.291980 101.710596 0.955340 -0.939895 -1.368403 -0.873720 3.203654 0.965196 -0.498510 3.215982 0.682345 -0.635968 3.146122 0.384994 -0.547704 3.161704 0.197784 -0.865446 24.132088 0.621702 -1.366965 12.935575 -2.641534 10.577386 10.737439 2.731777 -38.750412 -1.278340 -62.349920 -15.735333 7.274578 8.393581 8.466934 -0.390041 3.247704 -9.250442 5.787528 -3.015907 40.845462 1.248726 66.149289 16.344066 -6.019257 -9.490894 0.107607 16.886682 10.517961 7.524271 0.589346 11.757613 0.000000 4.110626 0.000000 14.708170 0.227019 -3.890636 0.000000 -2.333142 0.000000 -7.621745 -1.232522 -8.783925 0.000000 4.385211 0.000000 -2.867505 2.795141 3.128495 0.000000 -9.279475 0.000000
-103.694214 92.293555 101.729401 0.927212 -0.933760 -1.375096 -0.860605 3.196955 0.992021 -0.487440 3.200144 0.681587 -0.637311 3.138972 0.359017 -0.551152 3.148651 0.186885 -0.893340 24.188383 0.600933 -1.359938 12.861904 -2.594367 10.546037 10.714245 2.733370 -38.715708 -1.218414 -62.302640 -15.693717 7.460570 8.268747 8.582729 -0.202983 3.524302 -9.240973 5.760055 -2.999109 40.788018 1.295695 66.086967 16.372950 -5.881054 -9.379273 0.187088 17.379382 10.663464 7.573198 0.594947 11.763600 0.000000 4.106655 0.000000 14.697987 0.227354 -3.877348 0.000000 -2.300505 0.000000 -7.627403 -1.241627 -8.782934 0.000000 4.389030 0.000000 -2.833646 2.819696 3.170548 0.000000 -9.274534 0.000000
-103.688037 92.293597 101.753772 0.931052 -0.927067 -1.374932 -0.880479 3.132022 0.976896 -0.505534 3.235983 0.681155 -0.625595 3.145829 0.365118 -0.539396 3.134315 0.196385 -0.897430 24.195554 0.617700 -1.377198 12.863291 -2.631102 10.523926 10.700629 2.733523 -38.808317 -1.133821 -62.257140 -15.636086 7.466581 8.147478 8.539034 -0.112113 3.642745 -9.264394 5.758084 -3.001053 40.888685 1.347869 65.960932 16.335331 -5.701811 -9.260700 0.264085 17.661956 10.756522 7.579969 0.602829 11.763190 0.000000 4.103648 0.000000 14.697676 0.225949 -3.877327 0.000000 -2.226192 0.000000 -7.617116 -1.234267 -8.783033 0.000000 4.394391 0.000000 -2.848447 2.818930 3.145936 0.000000 -9.264730 0.000000
-103.677722 92.294244 101.779907 0.921049 -0.922127 -1.368905 -0.869922 3.108385 0.975860 -0.496352 3.211836 0.675234 -0.638962 3.121153 0.362029 -0.554634 3.177493 0.206162 -0.904433 24.203171 0.611864 -1.383623 12.850248 -2.645345 10.467564 10.693784 2.729470 -38.873499 -1.045625 -62.259733 -15.489122 7.513207 8.211202 8.378603 0.323875 3.444861 -9.233811 5.726381 -3.016413 40.954365 1.421467 65.864590 16.288845 -5.542913 -9.109763 0.208971 17.937733 10.758706 7.636015 0.599674 11.756275 0.000000 4.121862 0.000000 14.642417 0.225468 -3.894207 0.000000 -2.210177 0.000000 -7.582517 -1.222217 -8.798040 0.000000 4.393117 0.000000 -2.874850 2.830061 3.155409 0.000000 -9.245600 0.000000
-103.668738 92.294104 101.804431 0.911935 -0.920802 -1.348668 -0.871042 3.105414 0.939314 -0.503947 3.187817 0.682700 -0.646721 3.122235 0.395279 -0.554589 3.136882 0.167298 -0.912787 24.279192 0.590505 -1.370245 12.793032 -2.603621 10.443712 10.676424 2.717519 -38.873210 -0.970676 -62.239737 -15.392434 7.475040 8.118259 8.368211 0.489418 3.710960 -9.202109 5.721933 -3.015714 41.023592 1.501666 65.829218 16.243061 -5.485698 -9.040265 0.190097 18.180354 10.814696 7.659876 0.609873 11.730274 0.000000 4.128134 0.000000 14.639820 0.259153 -3.857217 0.000000 -2.192376 0.000000 -7.604412 -1.216736 -8.826193 0.000000 4.395050 0.000000 -2.850358 2.817306 3.167241 0.000000 -9.224122 0.000000
-103.660754 92.293054 101.822687 0.897274 -0.921384 -1.350459 -0.872328 3.107555 0.947384 -0.507262 3.170665 0.679191 -0.646828 3.122551 0.384561 -0.555543 3.108744 0.161575 -0.916740 24.294105 0.610137 -1.384965 12.777110 -2.631598 10.420623 10.618193 2.721614 -38.906856 -0.870526 -62.276353 -15.289003 7.510132 8.167825 8.367369 0.748348 3.572765 -9.193017 5.735819 -3.024840 41.074315 1.526171 65.763363 16.250665 -5.458884 -8.979988 0.056882 18.444075 10.935459 7.644240 0.622733 11.730579 0.000000 4.140997 0.000000 14.673947 0.268107 -3.857884 0.000000 -2.133197 0.000000 -7.565830 -1.215157 -8.830126 0.000000 4.412269 0.000000 -2.873380 2.827665 3.218228 0.000000 -9.248153 0.000000
